<?xml version="1.0" encoding="iso-8859-1"?>
<!-- Generator: Adobe Illustrator 17.1.0, SVG Export Plug-In . SVG Version: 6.00 Build 0)  -->
<!DOCTYPE svg PUBLIC "-//W3C//DTD SVG 1.1//EN" "http://www.w3.org/Graphics/SVG/1.1/DTD/svg11.dtd">
<svg version="1.1" id="Capa_1" xmlns="http://www.w3.org/2000/svg" xmlns:xlink="http://www.w3.org/1999/xlink" x="0px" y="0px"
	 viewBox="0 0 471.203 471.203" style="enable-background:new 0 0 471.203 471.203;" xml:space="preserve">
<path d="M468.52,230.839l-62.475-39.399c-2.254-1.427-5.474-1.201-7.515,0.526l-30.804,26.136H142.674
	c-6.201-9.838-17.157-16.393-29.621-16.393c-5.581,0-10.858,1.32-15.544,3.654l-44.326-33.265c-0.986-0.74-2.523-1.725-4.477-1.725
	c-1.883,0-3.595,0.94-4.581,2.515c-1.156,1.846-1.12,4.063,0.106,6.591l10.62,21.869l-44.681-29.61
	c-1.421-0.942-2.856-1.42-4.269-1.42c-1.869,0-3.573,0.84-4.676,2.304c-0.879,1.169-1.741,3.21-0.853,6.3l15.593,54.219
	c0.351,1.219,0.351,3.703-0.001,4.923L0.375,292.28c-0.89,3.091-0.027,5.132,0.852,6.301c1.103,1.464,2.807,2.304,4.676,2.304
	c1.412,0,2.848-0.478,4.268-1.419l44.682-29.611l-10.62,21.871c-1.227,2.526-1.263,4.744-0.106,6.59
	c0.986,1.574,2.698,2.515,4.581,2.515c1.953,0,3.49-0.984,4.476-1.725l42.608-31.976c5.098,2.904,10.988,4.573,17.263,4.573
	c13.376,0,25.018-7.545,30.906-18.601h223.768l30.808,26.14c1.134,0.959,2.6,1.487,4.129,1.487c1.215,0,2.384-0.333,3.377-0.961
	l62.475-39.4c1.683-1.059,2.688-2.84,2.688-4.766S470.198,231.894,468.52,230.839z"/>
<g>
</g>
<g>
</g>
<g>
</g>
<g>
</g>
<g>
</g>
<g>
</g>
<g>
</g>
<g>
</g>
<g>
</g>
<g>
</g>
<g>
</g>
<g>
</g>
<g>
</g>
<g>
</g>
<g>
</g>
</svg>
